<?xml version="1.0" encoding="UTF-8" standalone="no"?>
<!DOCTYPE svg PUBLIC "-//W3C//DTD SVG 1.1//EN"
 "http://www.w3.org/Graphics/SVG/1.1/DTD/svg11.dtd">
<!-- Generated by graphviz version 2.42.3 (20191010.1750)
 -->
<!-- Title: %3 Pages: 1 -->
<svg width="342pt" height="637pt"
 viewBox="0.00 0.00 342.19 637.08" xmlns="http://www.w3.org/2000/svg" xmlns:xlink="http://www.w3.org/1999/xlink">
<g id="graph0" class="graph" transform="scale(1 1) rotate(0) translate(4 633.08)">
<title>%3</title>
<polygon fill="white" stroke="transparent" points="-4,4 -4,-633.08 338.19,-633.08 338.19,4 -4,4"/>
<!-- 1332131836070662287 -->
<g id="node1" class="node">
<title>1332131836070662287</title>
<ellipse fill="none" stroke="black" cx="35.1" cy="-107.1" rx="35.19" ry="35.19"/>
<text text-anchor="middle" x="35.1" y="-103.4" font-family="Times,serif" font-size="14.00">array</text>
</g>
<!-- 4644960570183913711 -->
<g id="node2" class="node">
<title>4644960570183913711</title>
<polygon fill="none" stroke="black" points="68.1,-214.19 6.1,-214.19 6.1,-178.19 68.1,-178.19 68.1,-214.19"/>
<text text-anchor="middle" x="37.1" y="-192.49" font-family="Times,serif" font-size="14.00">(0, 0)</text>
</g>
<!-- 1332131836070662287&#45;&gt;4644960570183913711 -->
<g id="edge1" class="edge">
<title>1332131836070662287&#45;&gt;4644960570183913711</title>
<path fill="none" stroke="black" d="M35.89,-142.52C36.08,-150.89 36.28,-159.73 36.47,-167.73"/>
<polygon fill="black" stroke="black" points="32.97,-168.07 36.7,-177.99 39.97,-167.91 32.97,-168.07"/>
</g>
<!-- 3468836617258018428 -->
<g id="node10" class="node">
<title>3468836617258018428</title>
<ellipse fill="none" stroke="black" cx="41.1" cy="-275.54" rx="25.2" ry="25.2"/>
<text text-anchor="middle" x="41.1" y="-271.84" font-family="Times,serif" font-size="14.00">sum</text>
</g>
<!-- 4644960570183913711&#45;&gt;3468836617258018428 -->
<g id="edge10" class="edge">
<title>4644960570183913711&#45;&gt;3468836617258018428</title>
<path fill="none" stroke="black" d="M37.98,-214.36C38.38,-221.91 38.85,-231.06 39.31,-239.93"/>
<polygon fill="black" stroke="black" points="35.82,-240.28 39.83,-250.09 42.81,-239.92 35.82,-240.28"/>
</g>
<!-- 4039976885847033675 -->
<g id="node3" class="node">
<title>4039976885847033675</title>
<polygon fill="none" stroke="black" points="194.1,-36 140.1,-36 140.1,0 194.1,0 194.1,-36"/>
</g>
<!-- 4039976885847033675&#45;&gt;1332131836070662287 -->
<g id="edge2" class="edge">
<title>4039976885847033675&#45;&gt;1332131836070662287</title>
<path fill="none" stroke="black" d="M140.01,-34.21C122.34,-44.4 98.96,-58.39 79.1,-72 76.22,-73.97 73.28,-76.06 70.35,-78.21"/>
<polygon fill="black" stroke="black" points="68.1,-75.52 62.19,-84.31 72.29,-81.12 68.1,-75.52"/>
</g>
<!-- 4887298475309927912 -->
<g id="node4" class="node">
<title>4887298475309927912</title>
<ellipse fill="none" stroke="black" cx="123.1" cy="-107.1" rx="35.19" ry="35.19"/>
<text text-anchor="middle" x="123.1" y="-103.4" font-family="Times,serif" font-size="14.00">array</text>
</g>
<!-- 4039976885847033675&#45;&gt;4887298475309927912 -->
<g id="edge4" class="edge">
<title>4039976885847033675&#45;&gt;4887298475309927912</title>
<path fill="none" stroke="black" d="M158.4,-36.21C154.03,-44.87 148.52,-55.77 143.17,-66.36"/>
<polygon fill="black" stroke="black" points="139.93,-65.02 138.54,-75.53 146.17,-68.18 139.93,-65.02"/>
</g>
<!-- 3820245129405553050 -->
<g id="node6" class="node">
<title>3820245129405553050</title>
<ellipse fill="none" stroke="black" cx="211.1" cy="-107.1" rx="35.19" ry="35.19"/>
<text text-anchor="middle" x="211.1" y="-103.4" font-family="Times,serif" font-size="14.00">array</text>
</g>
<!-- 4039976885847033675&#45;&gt;3820245129405553050 -->
<g id="edge6" class="edge">
<title>4039976885847033675&#45;&gt;3820245129405553050</title>
<path fill="none" stroke="black" d="M175.79,-36.21C180.17,-44.87 185.67,-55.77 191.02,-66.36"/>
<polygon fill="black" stroke="black" points="188.02,-68.18 195.65,-75.53 194.27,-65.02 188.02,-68.18"/>
</g>
<!-- &#45;147971248125268911 -->
<g id="node8" class="node">
<title>&#45;147971248125268911</title>
<ellipse fill="none" stroke="black" cx="299.1" cy="-107.1" rx="35.19" ry="35.19"/>
<text text-anchor="middle" x="299.1" y="-103.4" font-family="Times,serif" font-size="14.00">array</text>
</g>
<!-- 4039976885847033675&#45;&gt;&#45;147971248125268911 -->
<g id="edge8" class="edge">
<title>4039976885847033675&#45;&gt;&#45;147971248125268911</title>
<path fill="none" stroke="black" d="M194.18,-34.21C211.85,-44.4 235.23,-58.39 255.1,-72 257.97,-73.97 260.92,-76.06 263.84,-78.21"/>
<polygon fill="black" stroke="black" points="261.9,-81.12 272.01,-84.31 266.09,-75.52 261.9,-81.12"/>
</g>
<!-- 4644960570185078760 -->
<g id="node5" class="node">
<title>4644960570185078760</title>
<polygon fill="none" stroke="black" points="154.1,-214.19 92.1,-214.19 92.1,-178.19 154.1,-178.19 154.1,-214.19"/>
<text text-anchor="middle" x="123.1" y="-192.49" font-family="Times,serif" font-size="14.00">(0, 1)</text>
</g>
<!-- 4887298475309927912&#45;&gt;4644960570185078760 -->
<g id="edge3" class="edge">
<title>4887298475309927912&#45;&gt;4644960570185078760</title>
<path fill="none" stroke="black" d="M123.1,-142.52C123.1,-150.89 123.1,-159.73 123.1,-167.73"/>
<polygon fill="black" stroke="black" points="119.6,-167.99 123.1,-177.99 126.6,-167.99 119.6,-167.99"/>
</g>
<!-- 4265929444848951603 -->
<g id="node12" class="node">
<title>4265929444848951603</title>
<ellipse fill="none" stroke="black" cx="124.1" cy="-275.54" rx="25.2" ry="25.2"/>
<text text-anchor="middle" x="124.1" y="-271.84" font-family="Times,serif" font-size="14.00">sum</text>
</g>
<!-- 4644960570185078760&#45;&gt;4265929444848951603 -->
<g id="edge12" class="edge">
<title>4644960570185078760&#45;&gt;4265929444848951603</title>
<path fill="none" stroke="black" d="M123.32,-214.36C123.42,-221.91 123.53,-231.06 123.65,-239.93"/>
<polygon fill="black" stroke="black" points="120.15,-240.13 123.78,-250.09 127.15,-240.04 120.15,-240.13"/>
</g>
<!-- 4644961831380912534 -->
<g id="node7" class="node">
<title>4644961831380912534</title>
<polygon fill="none" stroke="black" points="241.1,-214.19 179.1,-214.19 179.1,-178.19 241.1,-178.19 241.1,-214.19"/>
<text text-anchor="middle" x="210.1" y="-192.49" font-family="Times,serif" font-size="14.00">(1, 0)</text>
</g>
<!-- 3820245129405553050&#45;&gt;4644961831380912534 -->
<g id="edge5" class="edge">
<title>3820245129405553050&#45;&gt;4644961831380912534</title>
<path fill="none" stroke="black" d="M210.7,-142.52C210.61,-150.89 210.5,-159.73 210.41,-167.73"/>
<polygon fill="black" stroke="black" points="206.91,-167.95 210.29,-177.99 213.91,-168.03 206.91,-167.95"/>
</g>
<!-- 8530969032873196913 -->
<g id="node14" class="node">
<title>8530969032873196913</title>
<ellipse fill="none" stroke="black" cx="210.1" cy="-275.54" rx="25.2" ry="25.2"/>
<text text-anchor="middle" x="210.1" y="-271.84" font-family="Times,serif" font-size="14.00">sum</text>
</g>
<!-- 4644961831380912534&#45;&gt;8530969032873196913 -->
<g id="edge14" class="edge">
<title>4644961831380912534&#45;&gt;8530969032873196913</title>
<path fill="none" stroke="black" d="M210.1,-214.36C210.1,-221.91 210.1,-231.06 210.1,-239.93"/>
<polygon fill="black" stroke="black" points="206.6,-240.09 210.1,-250.09 213.6,-240.09 206.6,-240.09"/>
</g>
<!-- 4644961831379747485 -->
<g id="node9" class="node">
<title>4644961831379747485</title>
<polygon fill="none" stroke="black" points="329.1,-214.19 267.1,-214.19 267.1,-178.19 329.1,-178.19 329.1,-214.19"/>
<text text-anchor="middle" x="298.1" y="-192.49" font-family="Times,serif" font-size="14.00">(1, 1)</text>
</g>
<!-- &#45;147971248125268911&#45;&gt;4644961831379747485 -->
<g id="edge7" class="edge">
<title>&#45;147971248125268911&#45;&gt;4644961831379747485</title>
<path fill="none" stroke="black" d="M298.7,-142.52C298.61,-150.89 298.5,-159.73 298.41,-167.73"/>
<polygon fill="black" stroke="black" points="294.91,-167.95 298.29,-177.99 301.91,-168.03 294.91,-167.95"/>
</g>
<!-- 495710950407777338 -->
<g id="node16" class="node">
<title>495710950407777338</title>
<ellipse fill="none" stroke="black" cx="292.1" cy="-275.54" rx="25.2" ry="25.2"/>
<text text-anchor="middle" x="292.1" y="-271.84" font-family="Times,serif" font-size="14.00">sum</text>
</g>
<!-- 4644961831379747485&#45;&gt;495710950407777338 -->
<g id="edge16" class="edge">
<title>4644961831379747485&#45;&gt;495710950407777338</title>
<path fill="none" stroke="black" d="M296.77,-214.36C296.18,-221.91 295.47,-231.06 294.78,-239.93"/>
<polygon fill="black" stroke="black" points="291.28,-239.85 293.99,-250.09 298.26,-240.39 291.28,-239.85"/>
</g>
<!-- 1644421544021893412 -->
<g id="node11" class="node">
<title>1644421544021893412</title>
<polygon fill="none" stroke="black" points="76.1,-372.89 14.1,-372.89 14.1,-336.89 76.1,-336.89 76.1,-372.89"/>
<text text-anchor="middle" x="45.1" y="-351.19" font-family="Times,serif" font-size="14.00">(0, 0)</text>
</g>
<!-- 3468836617258018428&#45;&gt;1644421544021893412 -->
<g id="edge9" class="edge">
<title>3468836617258018428&#45;&gt;1644421544021893412</title>
<path fill="none" stroke="black" d="M42.36,-301.01C42.78,-309.02 43.24,-317.96 43.66,-326.18"/>
<polygon fill="black" stroke="black" points="40.18,-326.63 44.19,-336.43 47.17,-326.27 40.18,-326.63"/>
</g>
<!-- &#45;1605098005772364320 -->
<g id="node18" class="node">
<title>&#45;1605098005772364320</title>
<ellipse fill="none" stroke="black" cx="169.1" cy="-482.98" rx="74.19" ry="74.19"/>
<text text-anchor="middle" x="169.1" y="-479.28" font-family="Times,serif" font-size="14.00">sum&#45;aggregate</text>
</g>
<!-- 1644421544021893412&#45;&gt;&#45;1605098005772364320 -->
<g id="edge19" class="edge">
<title>1644421544021893412&#45;&gt;&#45;1605098005772364320</title>
<path fill="none" stroke="black" d="M61.82,-372.89C74.48,-385.77 92.69,-404.29 110.52,-422.41"/>
<polygon fill="black" stroke="black" points="108.08,-424.92 117.58,-429.6 113.07,-420.01 108.08,-424.92"/>
</g>
<!-- 1644421544020728363 -->
<g id="node13" class="node">
<title>1644421544020728363</title>
<polygon fill="none" stroke="black" points="159.1,-372.89 97.1,-372.89 97.1,-336.89 159.1,-336.89 159.1,-372.89"/>
<text text-anchor="middle" x="128.1" y="-351.19" font-family="Times,serif" font-size="14.00">(0, 1)</text>
</g>
<!-- 4265929444848951603&#45;&gt;1644421544020728363 -->
<g id="edge11" class="edge">
<title>4265929444848951603&#45;&gt;1644421544020728363</title>
<path fill="none" stroke="black" d="M125.36,-301.01C125.78,-309.02 126.24,-317.96 126.66,-326.18"/>
<polygon fill="black" stroke="black" points="123.18,-326.63 127.19,-336.43 130.17,-326.27 123.18,-326.63"/>
</g>
<!-- 1644421544020728363&#45;&gt;&#45;1605098005772364320 -->
<g id="edge18" class="edge">
<title>1644421544020728363&#45;&gt;&#45;1605098005772364320</title>
<path fill="none" stroke="black" d="M133.63,-372.89C136.29,-381.09 139.7,-391.56 143.34,-402.77"/>
<polygon fill="black" stroke="black" points="140.02,-403.89 146.44,-412.31 146.68,-401.72 140.02,-403.89"/>
</g>
<!-- 1644420282824894589 -->
<g id="node15" class="node">
<title>1644420282824894589</title>
<polygon fill="none" stroke="black" points="241.1,-372.89 179.1,-372.89 179.1,-336.89 241.1,-336.89 241.1,-372.89"/>
<text text-anchor="middle" x="210.1" y="-351.19" font-family="Times,serif" font-size="14.00">(1, 0)</text>
</g>
<!-- 8530969032873196913&#45;&gt;1644420282824894589 -->
<g id="edge13" class="edge">
<title>8530969032873196913&#45;&gt;1644420282824894589</title>
<path fill="none" stroke="black" d="M210.1,-301.01C210.1,-309.02 210.1,-317.96 210.1,-326.18"/>
<polygon fill="black" stroke="black" points="206.6,-326.43 210.1,-336.43 213.6,-326.43 206.6,-326.43"/>
</g>
<!-- 1644420282824894589&#45;&gt;&#45;1605098005772364320 -->
<g id="edge20" class="edge">
<title>1644420282824894589&#45;&gt;&#45;1605098005772364320</title>
<path fill="none" stroke="black" d="M204.57,-372.89C201.9,-381.09 198.5,-391.56 194.85,-402.77"/>
<polygon fill="black" stroke="black" points="191.51,-401.72 191.75,-412.31 198.17,-403.89 191.51,-401.72"/>
</g>
<!-- 1644420282826059638 -->
<g id="node17" class="node">
<title>1644420282826059638</title>
<polygon fill="none" stroke="black" points="323.1,-372.89 261.1,-372.89 261.1,-336.89 323.1,-336.89 323.1,-372.89"/>
<text text-anchor="middle" x="292.1" y="-351.19" font-family="Times,serif" font-size="14.00">(1, 1)</text>
</g>
<!-- 495710950407777338&#45;&gt;1644420282826059638 -->
<g id="edge15" class="edge">
<title>495710950407777338&#45;&gt;1644420282826059638</title>
<path fill="none" stroke="black" d="M292.1,-301.01C292.1,-309.02 292.1,-317.96 292.1,-326.18"/>
<polygon fill="black" stroke="black" points="288.6,-326.43 292.1,-336.43 295.6,-326.43 288.6,-326.43"/>
</g>
<!-- 1644420282826059638&#45;&gt;&#45;1605098005772364320 -->
<g id="edge21" class="edge">
<title>1644420282826059638&#45;&gt;&#45;1605098005772364320</title>
<path fill="none" stroke="black" d="M275.51,-372.89C263.12,-385.6 245.37,-403.79 227.92,-421.68"/>
<polygon fill="black" stroke="black" points="224.95,-419.72 220.47,-429.32 229.96,-424.6 224.95,-419.72"/>
</g>
<!-- &#45;5160846870893559840 -->
<g id="node19" class="node">
<title>&#45;5160846870893559840</title>
<polygon fill="none" stroke="black" points="196.1,-629.08 142.1,-629.08 142.1,-593.08 196.1,-593.08 196.1,-629.08"/>
<text text-anchor="middle" x="169.1" y="-607.38" font-family="Times,serif" font-size="14.00">()</text>
</g>
<!-- &#45;1605098005772364320&#45;&gt;&#45;5160846870893559840 -->
<g id="edge17" class="edge">
<title>&#45;1605098005772364320&#45;&gt;&#45;5160846870893559840</title>
<path fill="none" stroke="black" d="M169.1,-557.33C169.1,-566.32 169.1,-575.02 169.1,-582.67"/>
<polygon fill="black" stroke="black" points="165.6,-582.72 169.1,-592.72 172.6,-582.72 165.6,-582.72"/>
</g>
</g>
</svg>
